<?xml version="1.0" encoding="UTF-8"?>
<svg id="Layer_1" data-name="Layer 1" xmlns="http://www.w3.org/2000/svg" viewBox="0 0 1080 1080">
  <defs>
    <style>
      .cls-1 {
        fill: #ffb804;
      }
    </style>
  </defs>
  <path class="cls-1" d="m1012.95,554.07c-3.13-6-78.2-147.09-213.21-162.16-80.86-8.99-164.37,29.45-248.82,114.2-1.28.81-2.49,1.75-3.52,2.97-1.72,2.03-3.43,3.89-5.14,5.88-1.09,1.13-2.18,2.33-3.27,3.47-1.43-1.26-2.84-2.51-4.3-3.77-82.84-79.96-120.72-157.48-112.6-230.86,11.04-99.83,105.61-165.37,136.4-184.21,61.71,64.52,90.16,128.55,84.62,190.47-6.41,71.62-57.43,122.46-79.99,141.65-33.48-40.78-48.06-79.57-43.37-115.43,6.5-49.77,48.97-78.3,49.63-78.74,7.01-4.57,9.01-13.95,4.46-20.98-4.56-7.03-13.96-9.06-21-4.49-2.22,1.44-54.59,35.99-63.15,99.84-6.47,48.31,13.74,99.07,60.09,150.88,5.08,5.7,13.64,6.72,19.94,2.37,3.83-2.64,93.96-65.94,103.63-172.08,6.74-74.07-27.4-149.2-101.51-223.3-4.68-4.69-11.89-5.78-17.76-2.73-6,3.13-147.09,78.2-162.16,213.21-9.03,80.86,29.45,164.38,114.21,248.83.81,1.28,1.75,2.48,2.96,3.51,2.02,1.72,3.88,3.42,5.87,5.14,1.14,1.09,2.33,2.18,3.48,3.28-1.27,1.45-2.54,2.88-3.82,4.35-79.94,82.81-157.44,120.71-230.81,112.54-99.83-11.04-165.37-105.61-184.22-136.4,64.52-61.7,128.59-90.13,190.48-84.62,71.62,6.41,122.46,57.43,141.65,79.99-40.78,33.46-79.5,48.07-115.43,43.37-49.65-6.49-78.16-48.76-78.74-49.62-4.56-7.02-13.96-9.03-20.98-4.46-7.04,4.55-9.06,13.96-4.5,21,1.44,2.22,36,54.59,99.85,63.15,48.33,6.46,99.07-13.74,150.88-60.09,5.7-5.1,6.72-13.65,2.37-19.94-2.64-3.83-65.94-93.95-172.08-103.63-74.05-6.76-149.2,27.41-223.3,101.51-4.69,4.69-5.8,11.88-2.73,17.76,3.13,6,78.2,147.08,213.21,162.16,7.72.86,15.44,1.29,23.21,1.29,73.58,0,149.21-38.83,225.58-115.48,1.29-.81,2.51-1.76,3.55-2.98,1.33-1.57,2.66-3.01,3.99-4.56,1.48-1.53,2.96-3.2,4.45-4.76,1.42,1.25,2.82,2.49,4.27,3.74,82.84,79.96,120.72,157.48,112.6,230.86-11.04,99.83-105.61,165.37-136.4,184.21-61.71-64.52-90.16-128.55-84.62-190.47,6.41-71.62,57.43-122.46,79.99-141.65,33.48,40.78,48.06,79.57,43.37,115.43-6.5,49.77-48.97,78.3-49.63,78.74-7.01,4.57-9.01,13.95-4.46,20.98,4.55,7.03,13.95,9.06,21,4.49,2.22-1.44,54.59-35.99,63.15-99.84,6.47-48.31-13.74-99.07-60.09-150.88-5.1-5.7-13.65-6.73-19.94-2.37-3.83,2.64-93.96,65.94-103.63,172.08-6.74,74.07,27.4,149.2,101.51,223.3,2.91,2.92,6.81,4.45,10.75,4.45,2.39,0,4.8-.56,7.02-1.72,6-3.13,147.09-78.2,162.16-213.21,9.03-80.86-29.45-164.38-114.21-248.83-.81-1.28-1.75-2.48-2.96-3.51-2.02-1.72-3.88-3.42-5.87-5.14-1.13-1.09-2.32-2.17-3.47-3.26,1.32-1.51,2.64-3,3.96-4.52,79.9-82.71,157.38-120.52,230.67-112.39,99.83,11.04,165.37,105.61,184.21,136.4-64.52,61.71-128.59,90.19-190.47,84.62-71.62-6.41-122.46-57.43-141.65-79.99,40.78-33.47,79.54-48.07,115.43-43.37,49.79,6.5,78.32,49,78.74,49.63,4.55,7,13.94,9.02,20.98,4.46,7.04-4.55,9.06-13.96,4.49-21-1.44-2.22-35.99-54.59-99.84-63.15-48.33-6.46-99.07,13.74-150.88,60.09-5.7,5.1-6.72,13.65-2.37,19.94,2.64,3.83,65.94,93.96,172.08,103.63,6.12.56,12.24.83,18.36.83,68.1,0,136.96-34.36,204.94-102.34,4.69-4.69,5.8-11.88,2.73-17.76Z"/>
</svg>