<?xml version="1.0" encoding="UTF-8"?>
<svg id="Layer_1" data-name="Layer 1" xmlns="http://www.w3.org/2000/svg" viewBox="0 0 1080 1080">
  <defs>
    <style>
      .cls-1 {
        fill: #f9b132;
      }

      .cls-2 {
        fill: #00aaa7;
      }
    </style>
  </defs>
  <path class="cls-1" d="m281.64,549.3c-.8-1.54-20.01-37.63-54.55-41.49-20.69-2.3-42.06,7.54-63.66,29.22-.33.21-.64.45-.9.76-.44.52-.88,1-1.32,1.5-.28.29-.56.6-.84.89-.37-.32-.73-.64-1.1-.96-21.19-20.46-30.89-40.29-28.81-59.07,2.83-25.54,27.02-42.31,34.9-47.13,15.79,16.51,23.07,32.89,21.65,48.73-1.64,18.33-14.69,31.33-20.47,36.24-8.57-10.43-12.3-20.36-11.1-29.53,1.66-12.73,12.53-20.03,12.7-20.15,1.79-1.17,2.31-3.57,1.14-5.37-1.17-1.8-3.57-2.32-5.37-1.15-.57.37-13.97,9.21-16.16,25.55-1.66,12.36,3.52,25.35,15.37,38.6,1.3,1.46,3.49,1.72,5.1.61.98-.68,24.04-16.87,26.51-44.03,1.72-18.95-7.01-38.17-25.97-57.13-1.2-1.2-3.04-1.48-4.54-.7-1.54.8-37.63,20.01-41.49,54.55-2.31,20.69,7.53,42.06,29.22,63.66.21.33.45.64.76.9.52.44.99.88,1.5,1.31.29.28.6.56.89.84-.33.37-.65.74-.98,1.11-20.45,21.19-40.28,30.89-59.05,28.79-25.54-2.83-42.31-27.02-47.13-34.9,16.51-15.79,32.9-23.06,48.74-21.65,18.33,1.64,31.33,14.69,36.24,20.47-10.43,8.56-20.34,12.3-29.53,11.1-12.7-1.66-20-12.48-20.15-12.7-1.17-1.8-3.57-2.31-5.37-1.14-1.8,1.17-2.32,3.57-1.15,5.37.37.57,9.21,13.97,25.55,16.16,12.36,1.65,25.35-3.51,38.6-15.37,1.46-1.31,1.72-3.49.61-5.1-.68-.98-16.87-24.04-44.03-26.51-18.95-1.73-38.18,7.01-57.13,25.97-1.2,1.2-1.48,3.04-.7,4.54.8,1.54,20.01,37.63,54.55,41.49,1.97.22,3.95.33,5.94.33,18.83,0,38.18-9.94,57.72-29.55.33-.21.64-.45.91-.76.34-.4.68-.77,1.02-1.17.38-.39.76-.82,1.14-1.22.36.32.72.64,1.09.96,21.19,20.46,30.89,40.29,28.81,59.07-2.83,25.54-27.02,42.31-34.9,47.13-15.79-16.51-23.07-32.89-21.65-48.73,1.64-18.33,14.69-31.33,20.47-36.24,8.57,10.43,12.3,20.36,11.1,29.53-1.66,12.73-12.53,20.03-12.7,20.15-1.79,1.17-2.31,3.57-1.14,5.37,1.17,1.8,3.57,2.32,5.37,1.15.57-.37,13.97-9.21,16.16-25.55,1.66-12.36-3.52-25.35-15.37-38.6-1.3-1.46-3.49-1.72-5.1-.61-.98.68-24.04,16.87-26.51,44.03-1.72,18.95,7.01,38.17,25.97,57.13.75.75,1.74,1.14,2.75,1.14.61,0,1.23-.14,1.8-.44,1.54-.8,37.63-20.01,41.49-54.55,2.31-20.69-7.53-42.06-29.22-63.66-.21-.33-.45-.64-.76-.9-.52-.44-.99-.88-1.5-1.31-.29-.28-.59-.56-.89-.83.34-.39.67-.77,1.01-1.16,20.44-21.16,40.27-30.84,59.02-28.76,25.54,2.83,42.31,27.02,47.13,34.9-16.51,15.79-32.9,23.07-48.73,21.65-18.33-1.64-31.33-14.69-36.24-20.47,10.43-8.56,20.35-12.3,29.53-11.1,12.74,1.66,20.04,12.54,20.15,12.7,1.17,1.79,3.57,2.31,5.37,1.14,1.8-1.17,2.32-3.57,1.15-5.37-.37-.57-9.21-13.97-25.55-16.16-12.36-1.65-25.35,3.52-38.6,15.37-1.46,1.31-1.72,3.49-.61,5.1.68.98,16.87,24.04,44.03,26.51,1.57.14,3.13.21,4.7.21,17.42,0,35.04-8.79,52.43-26.19,1.2-1.2,1.48-3.04.7-4.54Z"/>
  <g>
    <g>
      <path class="cls-2" d="m376.58,508.13c4.32,1.07,7.83,1.98,10.53,2.7,2.7.72,6.39,2.11,11.07,4.18,4.68,2.07,8.37,4.32,11.07,6.75,2.7,2.43,5.13,5.76,7.29,9.98,2.16,4.23,3.24,9.04,3.24,14.44,0,11.52-4.32,20.69-12.96,27.53-8.27,6.84-19.16,10.25-32.66,10.25-8.46,0-16.96-1.17-25.51-3.5-8.55-2.34-14.98-4.68-19.3-7.02l-6.48-3.51v-24.56l3.24.27c2.52,7.2,8.46,14.89,17.81,23.08,9.35,8.19,19.34,12.28,29.96,12.28,9.54,0,16.55-1.98,21.06-5.94,4.49-3.95,6.74-8.46,6.74-13.49,0-5.76-2.29-10.26-6.88-13.49-4.59-3.24-11.92-6.3-22-9.18-12.59-3.6-22.67-6.66-30.23-9.18-8.64-3.05-15.07-8-19.3-14.84-4.23-6.84-5.62-14.57-4.18-23.21,1.62-11.15,6.48-19.71,14.57-25.64,8.1-5.94,17-8.91,26.72-8.91,17.99,0,33.56,4.23,46.69,12.69v21.32h-3.51c-13.86-19.79-27.89-29.69-42.11-29.69-7.38,0-13.23,2.07-17.55,6.21-4.32,4.14-6.48,9.09-6.48,14.84s2.83,10.35,8.5,14.31c5.67,3.96,14.8,7.47,27.4,10.53l3.24.81Z"/>
      <path class="cls-2" d="m545.81,568.59c0,7.02,1.52,10.98,4.59,11.88v2.43h-1.08c-21.95.36-33.29-6.3-34.01-19.98-11.51,14.22-25.1,21.32-40.75,21.32-10.98,0-19.98-3.42-26.99-10.26-7.02-6.84-10.53-15.11-10.53-24.83,0-5.76,1.44-11.02,4.32-15.79,2.88-4.77,6.62-8.68,11.2-11.74,4.59-3.06,9.67-5.76,15.25-8.1,5.58-2.34,11.15-4.09,16.73-5.26,5.58-1.17,10.66-2.16,15.25-2.97,4.58-.81,8.32-1.21,11.2-1.21l4.32-.27c0-15.29-1.4-26.36-4.18-33.2-2.79-6.83-7.6-10.25-14.44-10.25-4.14,0-7.92,1.4-11.33,4.18-3.42,2.8-6.17,6.44-8.23,10.93-2.07,4.5-3.64,8.19-4.72,11.07s-1.98,5.76-2.7,8.64l-21.59-3.51c1.79-10.08,7.69-18.35,17.68-24.83,9.99-6.48,20.11-9.72,30.37-9.72,14.93,0,26.94,4.23,36.03,12.69,9.09,8.46,13.63,18.18,13.63,29.15v69.64Zm-30.5-14.85v-44.53c-.72-.18-1.66-.22-2.83-.13-1.17.09-3.42.36-6.75.81-3.33.45-6.52,1.08-9.58,1.89-3.06.81-6.44,2.2-10.12,4.18-3.69,1.98-6.88,4.32-9.58,7.02-2.7,2.7-4.99,6.3-6.88,10.8-1.89,4.5-2.83,9.63-2.83,15.39,0,6.3,1.85,11.56,5.54,15.79,3.68,4.23,8.05,6.79,13.09,7.69,5.03.9,10.39-.22,16.06-3.37,5.67-3.14,10.3-8.32,13.9-15.52Z"/>
      <path class="cls-2" d="m622.46,576.95c1.44,0,3.06-.27,4.86-.81v3.78c-5.4,1.98-11.43,2.97-18.08,2.97-3.24,0-5.9-.09-7.96-.27-2.07-.18-4.86-.89-8.37-2.16-3.51-1.26-6.35-3.06-8.5-5.4-2.16-2.34-4.05-5.89-5.67-10.66-1.62-4.77-2.43-10.57-2.43-17.41v-82.86h-13.77v-4.59h4.59c7.92,0,15.88-3.78,23.89-11.33,8.01-7.56,12.01-13.77,12.01-18.63l3.51-.27v30.23h17.81v4.59h-17.81l-.27,85.02c0,18.53,5.4,27.8,16.19,27.8Z"/>
      <path class="cls-2" d="m698.31,576.95c1.44,0,3.05-.27,4.86-.81v3.78c-5.4,1.98-11.43,2.97-18.08,2.97-3.24,0-5.9-.09-7.96-.27-2.07-.18-4.86-.89-8.37-2.16-3.51-1.26-6.34-3.06-8.5-5.4-2.16-2.34-4.05-5.89-5.67-10.66-1.62-4.77-2.43-10.57-2.43-17.41v-82.86h-13.76v-4.59h4.59c7.91,0,15.88-3.78,23.89-11.33,8-7.56,12.01-13.77,12.01-18.63l3.5-.27v30.23h17.81v4.59h-17.81l-.27,85.02c0,18.53,5.4,27.8,16.2,27.8Z"/>
      <path class="cls-2" d="m826.78,460.09v-.54h20.78v.81c-.36,0-1.17.36-2.43,1.08-1.26.72-2.83,2.16-4.72,4.32-1.89,2.16-3.37,4.68-4.45,7.56l-46.96,109.58h-3.24l-41.84-89.07c-7.92-16.73-16.73-22.85-26.45-18.36-1.26.54-2.61,1.44-4.05,2.7l-1.62-3.51c4.14-3.96,9.18-7.38,15.12-10.26,2.87-1.26,5.3-2.29,7.29-3.1,1.98-.81,4.86-1.35,8.64-1.62,3.78-.27,7.11.18,9.98,1.35,2.88,1.17,6.08,3.6,9.58,7.29,3.51,3.69,6.7,8.59,9.58,14.71l28.61,61c17.09-39.95,26.99-63.16,29.69-69.63,2.87-7.92,1.71-12.69-3.51-14.31Z"/>
      <path class="cls-2" d="m896.42,568.59c0,3.06.4,5.58,1.21,7.56.81,1.98,1.57,3.24,2.29,3.78l1.35.54v2.43h-1.08c-22.85.36-34.28-6.66-34.28-21.06v-60.19c.18-15.11-1.35-24.83-4.59-29.15v-2.97h1.35c4.86,0,9.89-.89,15.12-2.7,5.21-1.79,8.81-3.28,10.8-4.45,1.97-1.17,3.51-2.11,4.58-2.84h3.24v109.04Zm-4.59-129.29c-3.06,3.06-6.7,4.59-10.93,4.59s-7.87-1.52-10.93-4.59c-3.06-3.05-4.59-6.74-4.59-11.07s1.53-7.96,4.59-10.93c3.06-2.97,6.7-4.45,10.93-4.45s7.87,1.49,10.93,4.45c3.06,2.97,4.59,6.62,4.59,10.93s-1.53,8.01-4.59,11.07Z"/>
      <path class="cls-2" d="m1034.07,549.15l4.86,3.5c-3.6,5.94-6.93,10.44-9.98,13.5-11.52,12.06-26.54,18.08-45.08,18.08s-33.11-6.03-44.8-18.08c-11.52-12.24-17.28-27.44-17.28-45.61s5.76-32.56,17.28-45.35c10.8-12.05,24.56-18.08,41.29-18.08,12.05,0,23.39,3.11,34.01,9.31,10.62,6.21,17.72,14.71,21.32,25.51l-26.99,5.67c-1.08-4.68-3.02-9.4-5.8-14.17-2.79-4.77-6.34-9.13-10.66-13.09-4.32-3.95-9.18-6.34-14.57-7.15-5.4-.81-11.16.41-17.27,3.64-7.56,4.32-11.84,12.65-12.82,24.97-.99,12.33,2.29,26.41,9.85,42.24,1.98,3.96,4.27,7.78,6.88,11.47,2.6,3.69,5.89,7.51,9.85,11.47,3.95,3.96,8.68,7.15,14.17,9.58,5.48,2.43,11.29,3.64,17.41,3.64s11.51-2.11,16.73-6.34c5.22-4.23,9.09-9.13,11.61-14.71Z"/>
    </g>
    <g>
      <path class="cls-2" d="m330.23,649.22h-8.42l-.97,4.43h-4.18l7.59-34.06h3.5l7.59,34.06h-4.18l-.92-4.43Zm-.83-3.75l-3.41-15.91-3.41,15.91h6.81Z"/>
      <path class="cls-2" d="m346.24,619.59c5.58,0,8.37,2.6,8.37,7.78v18.49c0,5.19-2.79,7.79-8.37,7.79h-7.44v-34.06h7.44Zm0,30.46c1.39,0,2.42-.33,3.07-1,.65-.66,1.01-1.73,1.07-3.19v-18.49c-.07-1.46-.42-2.52-1.07-3.19-.65-.66-1.67-1-3.07-1h-3.21v26.86h3.21Z"/>
      <path class="cls-2" d="m376.45,619.59l-7.83,34.25h-3.02l-7.83-34.25h4.48l4.87,22.04,4.87-22.04h4.48Z"/>
      <path class="cls-2" d="m388.91,649.22h-8.42l-.97,4.43h-4.18l7.59-34.06h3.5l7.59,34.06h-4.18l-.92-4.43Zm-.83-3.75l-3.41-15.91-3.41,15.91h6.81Z"/>
      <path class="cls-2" d="m413.14,653.65h-3.6l-7.83-22.82v22.82h-4.23v-34.06h4.52l6.91,19.9v-19.9h4.23v34.06Z"/>
      <path class="cls-2" d="m430.07,629.08v-1.8c-.03-.91-.15-1.64-.37-2.19-.21-.55-.49-.98-.85-1.29-.36-.31-.75-.51-1.19-.61-.44-.1-.9-.15-1.39-.15-1.43,0-2.4.33-2.92,1-.52.67-.81,1.74-.88,3.24v18.68c.06,1.49.36,2.57.88,3.24.52.67,1.49,1,2.92,1,.49,0,.96-.05,1.41-.15.45-.1.85-.3,1.19-.61.34-.31.62-.74.83-1.29.21-.55.33-1.28.37-2.19v-3.6h4.23v3.6c0,2.72-.72,4.73-2.17,6.01-1.44,1.28-3.46,1.9-6.06,1.87-2.43,0-4.35-.66-5.74-1.97-1.4-1.31-2.09-3.28-2.09-5.91v-18.68c0-2.63.7-4.6,2.09-5.91,1.39-1.31,3.31-1.97,5.74-1.97,2.63,0,4.65.63,6.08,1.9,1.43,1.26,2.14,3.26,2.14,5.98v1.8h-4.23Z"/>
      <path class="cls-2" d="m452.21,649.91v3.75h-13.53v-34.06h13.04v3.75h-8.81v12.16h7.25v3.75h-7.25v10.66h9.29Z"/>
      <path class="cls-2" d="m463.6,619.59c5.58,0,8.37,2.6,8.37,7.78v18.49c0,5.19-2.79,7.79-8.37,7.79h-7.44v-34.06h7.44Zm0,30.46c1.39,0,2.42-.33,3.07-1,.65-.66,1.01-1.73,1.07-3.19v-18.49c-.07-1.46-.42-2.52-1.07-3.19-.65-.66-1.67-1-3.07-1h-3.21v26.86h3.21Z"/>
      <path class="cls-2" d="m500.67,649.22h-8.42l-.97,4.43h-4.18l7.59-34.06h3.5l7.59,34.06h-4.18l-.92-4.43Zm-.83-3.75l-3.41-15.91-3.41,15.91h6.81Z"/>
      <path class="cls-2" d="m515.56,639.54v14.11h-4.23v-14.11l-7.25-19.95h4.48l4.87,13.62,4.87-13.62h4.48l-7.2,19.95Z"/>
      <path class="cls-2" d="m541.74,645.97c0,2.72-.72,4.73-2.17,6.01-1.44,1.28-3.46,1.9-6.06,1.87-2.43,0-4.35-.66-5.74-1.97-1.4-1.31-2.09-3.28-2.09-5.91v-26.37h4.23v26.37c.06,1.49.36,2.57.88,3.24.52.67,1.49,1,2.92,1,.49,0,.96-.05,1.41-.15.45-.1.85-.3,1.19-.61.34-.31.62-.74.83-1.29.21-.55.33-1.28.37-2.19v-26.37h4.23v26.37Z"/>
      <path class="cls-2" d="m563.3,653.65h-4.38l-3.7-12.65c-.26-.81-.58-1.4-.95-1.78-.37-.37-.97-.56-1.78-.56h-1.27v14.99h-4.23v-34.06h6.67c3.05,0,5.25.76,6.62,2.29,1.36,1.53,2.04,3.67,2.04,6.42,0,2.5-.36,4.57-1.07,6.2-.71,1.64-1.75,2.8-3.11,3.48.62.71,1.02,1.51,1.22,2.38l3.94,13.28Zm-9.15-18.78c1.36,0,2.33-.54,2.9-1.63.57-1.09.85-2.6.85-4.55s-.34-3.22-1.02-4.01c-.68-.79-1.82-1.19-3.41-1.19h-2.24v11.39h2.92Z"/>
      <path class="cls-2" d="m583.83,619.59l-7.83,34.25h-3.02l-7.83-34.25h4.48l4.87,22.04,4.87-22.04h4.48Z"/>
      <path class="cls-2" d="m600.81,649.91v3.75h-13.53v-34.06h13.04v3.75h-8.81v12.16h7.25v3.75h-7.25v10.66h9.29Z"/>
      <path class="cls-2" d="m612.2,619.59c5.58,0,8.37,2.6,8.37,7.78v18.49c0,5.19-2.79,7.79-8.37,7.79h-7.44v-34.06h7.44Zm0,30.46c1.39,0,2.42-.33,3.07-1,.65-.66,1.01-1.73,1.07-3.19v-18.49c-.07-1.46-.42-2.52-1.07-3.19-.65-.66-1.67-1-3.07-1h-3.21v26.86h3.21Z"/>
      <path class="cls-2" d="m637.3,649.22h-8.42l-.97,4.43h-4.18l7.59-34.06h3.5l7.59,34.06h-4.18l-.92-4.43Zm-.83-3.75l-3.41-15.91-3.41,15.91h6.81Z"/>
      <path class="cls-2" d="m677.1,633.9v3.36h-2.19v16.4h-4.23v-3.45c-.45,1.17-1.11,2.07-1.97,2.7-.86.63-2.05.95-3.58.95-2.76,0-4.7-.72-5.81-2.17-1.12-1.44-1.68-3.46-1.68-6.06v-3.36c0-1.82.39-3.26,1.17-4.33s1.85-1.88,3.21-2.43c-1.49-.45-2.53-1.23-3.11-2.34-.58-1.1-.88-2.68-.88-4.72v-1.56c0-2.63.66-4.54,1.99-5.74,1.33-1.2,3.26-1.8,5.79-1.8,1.27,0,2.38.17,3.33.51.96.34,1.75.92,2.38,1.75.63.83,1.11,1.95,1.44,3.36.32,1.41.49,3.19.49,5.33h-4.23c0-1.46-.08-2.67-.24-3.62-.16-.96-.39-1.71-.68-2.26-.29-.55-.66-.93-1.09-1.14-.44-.21-.93-.32-1.48-.32-1.07,0-1.9.28-2.48.85-.58.57-.91,1.6-.97,3.09v1.56c0,.71.07,1.4.22,2.07.15.67.39,1.25.73,1.75.34.5.83.9,1.46,1.19.63.29,1.44.44,2.41.44h10.02Zm-6.42,3.36h-3.6c-1.17,0-2.09.09-2.77.27-.68.18-1.2.46-1.56.85-.36.39-.59.9-.71,1.53-.11.63-.17,1.42-.17,2.36v3.36c.06,1.49.42,2.58,1.07,3.26.65.68,1.65,1.02,3.02,1.02.68,0,1.31-.12,1.9-.37.58-.24,1.09-.66,1.51-1.24.42-.58.75-1.37.97-2.36.23-.99.34-2.21.34-3.67v-5.01Z"/>
      <path class="cls-2" d="m709.17,628.3c0,3.31-.62,5.81-1.87,7.52-1.25,1.7-3.06,2.55-5.43,2.55h-3.8v15.28h-4.23v-34.06h6.67c3.05,0,5.25.76,6.62,2.29,1.36,1.53,2.04,3.67,2.04,6.42Zm-8.17,6.28c1.36,0,2.33-.49,2.9-1.48.57-.99.85-2.46.85-4.4s-.34-3.22-1.02-4.01c-.68-.79-1.82-1.19-3.41-1.19h-2.24v11.09h2.92Z"/>
      <path class="cls-2" d="m722.16,649.22h-8.42l-.97,4.43h-4.18l7.59-34.06h3.5l7.59,34.06h-4.18l-.92-4.43Zm-.83-3.75l-3.41-15.91-3.41,15.91h6.81Z"/>
      <path class="cls-2" d="m746.39,653.65h-3.6l-7.83-22.82v22.82h-4.23v-34.06h4.52l6.91,19.9v-19.9h4.23v34.06Z"/>
      <path class="cls-2" d="m763.32,629.08v-1.8c-.03-.91-.15-1.64-.37-2.19-.21-.55-.49-.98-.85-1.29-.36-.31-.75-.51-1.19-.61-.44-.1-.9-.15-1.39-.15-1.43,0-2.4.33-2.92,1-.52.67-.81,1.74-.88,3.24v18.68c.06,1.49.36,2.57.88,3.24.52.67,1.49,1,2.92,1,.49,0,.96-.05,1.41-.15.45-.1.85-.3,1.19-.61.34-.31.62-.74.83-1.29.21-.55.33-1.28.37-2.19v-3.6h4.23v3.6c0,2.72-.72,4.73-2.17,6.01-1.44,1.28-3.46,1.9-6.06,1.87-2.43,0-4.35-.66-5.74-1.97-1.4-1.31-2.09-3.28-2.09-5.91v-18.68c0-2.63.7-4.6,2.09-5.91,1.39-1.31,3.31-1.97,5.74-1.97,2.63,0,4.65.63,6.08,1.9,1.43,1.26,2.14,3.26,2.14,5.98v1.8h-4.23Z"/>
      <path class="cls-2" d="m788.24,619.59v34.06h-4.23v-14.4h-7.83v14.4h-4.23v-34.06h4.23v15.91h7.83v-15.91h4.23Z"/>
      <path class="cls-2" d="m805.27,649.22h-8.42l-.97,4.43h-4.18l7.59-34.06h3.5l7.59,34.06h-4.18l-.92-4.43Zm-.83-3.75l-3.41-15.91-3.41,15.91h6.81Z"/>
      <path class="cls-2" d="m823.07,636.62c.81.84,1.43,1.82,1.85,2.92l5.84,14.11h-4.43l-5.5-13.23c-.32-.84-.67-1.35-1.02-1.51-.36-.16-.94-.24-1.75-.24v14.99h-4.23v-34.06h4.23v14.99c.39,0,.72-.02,1-.05.28-.03.52-.1.73-.22.21-.11.4-.28.56-.51.16-.23.32-.55.49-.97l5.5-13.23h4.43l-5.84,14.11c-.19.55-.45,1.07-.78,1.56-.32.49-.68.94-1.07,1.36Z"/>
      <path class="cls-2" d="m845.94,649.22h-8.42l-.97,4.43h-4.18l7.59-34.06h3.5l7.59,34.06h-4.18l-.92-4.43Zm-.83-3.75l-3.41-15.91-3.41,15.91h6.81Z"/>
      <path class="cls-2" d="m870.81,653.65h-4.38l-3.7-12.65c-.26-.81-.58-1.4-.95-1.78-.37-.37-.97-.56-1.78-.56h-1.27v14.99h-4.23v-34.06h6.67c3.05,0,5.25.76,6.62,2.29,1.36,1.53,2.04,3.67,2.04,6.42,0,2.5-.36,4.57-1.07,6.2-.71,1.64-1.75,2.8-3.11,3.48.62.71,1.02,1.51,1.22,2.38l3.94,13.28Zm-9.15-18.78c1.36,0,2.33-.54,2.9-1.63.57-1.09.85-2.6.85-4.55s-.34-3.22-1.02-4.01c-.68-.79-1.82-1.19-3.41-1.19h-2.24v11.39h2.92Z"/>
      <path class="cls-2" d="m893.67,619.59v34.06h-4.23v-19.71l-3.99,16.01h-2.34l-3.99-15.96v19.71l-4.23-.05v-34.06h4.57l4.82,20.1,4.82-20.1h4.57Z"/>
      <path class="cls-2" d="m910.66,649.22h-8.42l-.97,4.43h-4.18l7.59-34.06h3.5l7.59,34.06h-4.18l-.92-4.43Zm-.83-3.75l-3.41-15.91-3.41,15.91h6.81Z"/>
      <path class="cls-2" d="m942.72,629.08v-1.8c-.03-.91-.15-1.64-.37-2.19-.21-.55-.49-.98-.85-1.29-.36-.31-.75-.51-1.19-.61-.44-.1-.9-.15-1.39-.15-1.43,0-2.4.33-2.92,1-.52.67-.81,1.74-.88,3.24v18.68c.06,1.49.36,2.57.88,3.24.52.67,1.49,1,2.92,1,.49,0,.96-.05,1.41-.15.45-.1.85-.3,1.19-.61.34-.31.62-.74.83-1.29.21-.55.33-1.28.37-2.19v-3.6h4.23v3.6c0,2.72-.72,4.73-2.17,6.01-1.44,1.28-3.46,1.9-6.06,1.87-2.43,0-4.35-.66-5.74-1.97-1.4-1.31-2.09-3.28-2.09-5.91v-18.68c0-2.63.7-4.6,2.09-5.91,1.39-1.31,3.31-1.97,5.74-1.97,2.63,0,4.65.63,6.08,1.9,1.43,1.26,2.14,3.26,2.14,5.98v1.8h-4.23Z"/>
      <path class="cls-2" d="m964.86,649.91v3.75h-13.53v-34.06h13.04v3.75h-8.81v12.16h7.25v3.75h-7.25v10.66h9.29Z"/>
      <path class="cls-2" d="m984.47,653.65h-3.6l-7.83-22.82v22.82h-4.23v-34.06h4.52l6.91,19.9v-19.9h4.23v34.06Z"/>
      <path class="cls-2" d="m1003.74,623.34h-5.94v30.31h-4.23v-30.31h-5.94v-3.75h16.11v3.75Z"/>
      <path class="cls-2" d="m1023.2,653.65h-4.38l-3.7-12.65c-.26-.81-.58-1.4-.95-1.78-.37-.37-.97-.56-1.78-.56h-1.27v14.99h-4.23v-34.06h6.67c3.05,0,5.25.76,6.62,2.29,1.36,1.53,2.04,3.67,2.04,6.42,0,2.5-.36,4.57-1.07,6.2-.71,1.64-1.75,2.8-3.11,3.48.62.71,1.02,1.51,1.22,2.38l3.94,13.28Zm-9.15-18.78c1.36,0,2.33-.54,2.9-1.63.57-1.09.85-2.6.85-4.55s-.34-3.22-1.02-4.01c-.68-.79-1.82-1.19-3.41-1.19h-2.24v11.39h2.92Z"/>
      <path class="cls-2" d="m1040.81,649.91v3.75h-13.53v-34.06h13.04v3.75h-8.81v12.16h7.25v3.75h-7.25v10.66h9.29Z"/>
    </g>
  </g>
</svg>